# Blender v2.79 (sub 0) OBJ File: ''
# www.blender.org
mtllib cube.mtl
o Cube.001
v 3.667993 -1.000000 -0.459051
v 3.218735 -1.000000 0.908310
v 1.851374 -1.000000 0.459051
v 2.300632 -1.000000 -0.908310
v 3.704219 1.199347 -0.786778
v 3.218734 1.000000 0.908310
v 1.851374 1.000000 0.459051
v 2.300632 1.000000 -0.908309
vn 0.0000 -1.0000 0.0000
vn -0.0800 0.9960 0.0404
vn 0.9561 0.0146 0.2928
vn -0.3121 -0.0000 0.9500
vn -0.9500 -0.0000 -0.3121
vn 0.2065 -0.0779 -0.9753
usemtl Material
s off
f 1//1 2//1 3//1 4//1
f 5//2 8//2 7//2 6//2
f 1//3 5//3 6//3 2//3
f 2//4 6//4 7//4 3//4
f 3//5 7//5 8//5 4//5
f 5//6 1//6 4//6 8//6
o Cube
v 1.000000 -1.000000 -1.000000
v 1.000000 -1.000000 1.000000
v -1.000000 -1.000000 1.000000
v -1.000000 -1.000000 -1.000000
v 1.000000 1.000000 -0.999999
v 0.999999 1.000000 1.000001
v -1.000000 1.000000 1.000000
v -1.000000 1.000000 -1.000000
vn 0.0000 -1.0000 0.0000
vn 0.0000 1.0000 0.0000
vn 1.0000 0.0000 0.0000
vn -0.0000 -0.0000 1.0000
vn -1.0000 -0.0000 -0.0000
vn 0.0000 0.0000 -1.0000
usemtl Material
s off
f 9//7 10//7 11//7 12//7
f 13//8 16//8 15//8 14//8
f 9//9 13//9 14//9 10//9
f 10//10 14//10 15//10 11//10
f 11//11 15//11 16//11 12//11
f 13//12 9//12 12//12 16//12
